# xmcd
#
# Track frame offsets: 
#        150
#        14978
#        39653
#        66944
#        100154
#
# Disc length: 1538 seconds
#
# Revision: 0
# Processed by: cddbd v1.5PL3 Copyright (c) Steve Scherf et al.
# Submitted via: ExactAudioCopy v0.95a5
#
DISCID=43060005
DTITLE=Sergio del Rio - Parazaar
DYEAR=2003
DGENRE=Dance
TTITLE0=Parazaar (Gambafreaks Radio Edit)
TTITLE1=Parazaar (Gambafreaks vs. Fedo Mix)
TTITLE2=Parazaar (Gambafreaks vs. Mark C. Mix)
TTITLE3=Parazaar (Gambafreaks Porno Dub)
TTITLE4=Parazaar (Chill Out Mix)
EXTD=
EXTT0=
EXTT1=
EXTT2=
EXTT3=
EXTT4=
PLAYORDER=
